<svg xmlns="http://www.w3.org/2000/svg" width="216.619" height="154.133" viewBox="0 0 216.619 154.133"><defs><style>.a{opacity:0.3;}</style></defs><g class="a" transform="translate(-43.45 -119.306)"><g transform="translate(43.45 119.306)"><path d="M76.818,52.995H10.166A4.166,4.166,0,0,1,6,48.829V32.166A4.166,4.166,0,0,1,10.166,28H76.818a4.166,4.166,0,0,1,4.166,4.166V48.829A4.166,4.166,0,0,1,76.818,52.995ZM14.332,44.663H72.652V36.332H14.332Z" transform="translate(-6 1.16)"/><path d="M110.818,52.995H44.166A4.166,4.166,0,0,1,40,48.829V32.166A4.166,4.166,0,0,1,44.166,28h66.652a4.166,4.166,0,0,1,4.166,4.166V48.829A4.166,4.166,0,0,1,110.818,52.995ZM48.331,44.663h58.321V36.332H48.331Z" transform="translate(101.636 1.16)"/><path d="M92.818,83.486H34.5A12.5,12.5,0,0,1,22,70.989V50.16A29.16,29.16,0,0,1,51.16,21H76.155a29.16,29.16,0,0,1,29.16,29.16V70.989A12.5,12.5,0,0,1,92.818,83.486ZM51.16,29.332A20.829,20.829,0,0,0,30.332,50.16V70.989A4.166,4.166,0,0,0,34.5,75.155H92.818a4.166,4.166,0,0,0,4.166-4.166V50.16A20.829,20.829,0,0,0,76.155,29.332Z" transform="translate(44.652 -21)"/><path d="M100.149,63.994H33.5A12.5,12.5,0,0,1,33.5,39h66.652a12.5,12.5,0,1,1,0,24.995ZM33.5,47.331a4.166,4.166,0,0,0,0,8.332h66.652a4.166,4.166,0,1,0,0-8.332Z" transform="translate(41.486 35.984)"/><path d="M31.166,82.155A4.166,4.166,0,0,1,27,77.989V32.166a4.166,4.166,0,1,1,8.331,0V77.989A4.166,4.166,0,0,1,31.166,82.155Z" transform="translate(60.481 1.16)"/><path d="M39.166,82.155A4.166,4.166,0,0,1,35,77.989V32.166a4.166,4.166,0,1,1,8.331,0V77.989A4.166,4.166,0,0,1,39.166,82.155Z" transform="translate(85.807 1.16)"/><path d="M28.166,105.486A4.166,4.166,0,0,1,24,101.321V47.166a4.166,4.166,0,1,1,8.332,0v54.155A4.166,4.166,0,0,1,28.166,105.486Z" transform="translate(50.984 48.647)"/><path d="M42.166,105.486A4.166,4.166,0,0,1,38,101.321V47.166a4.166,4.166,0,1,1,8.331,0v54.155A4.166,4.166,0,0,1,42.166,105.486Z" transform="translate(95.304 48.647)"/><path d="M86.486,56.332H28.166a4.166,4.166,0,1,1,0-8.332H86.486a4.166,4.166,0,1,1,0,8.332Z" transform="translate(50.984 64.475)"/><path d="M13.166,140.31A4.166,4.166,0,0,1,9,136.144V36.166a4.166,4.166,0,0,1,8.332,0v99.978A4.166,4.166,0,0,1,13.166,140.31Z" transform="translate(3.497 13.823)"/><path d="M57.166,140.31A4.166,4.166,0,0,1,53,136.144V36.166a4.166,4.166,0,0,1,8.332,0v99.978A4.166,4.166,0,0,1,57.166,140.31Z" transform="translate(142.79 13.823)"/><path d="M64.492,36.332H31.166a4.166,4.166,0,0,1,0-8.332H64.492a4.166,4.166,0,1,1,0,8.332Z" transform="translate(60.481 1.16)"/></g></g></svg>