<svg
  id="svg"
  version="1.1"
  xmlns="http://www.w3.org/2000/svg"
  xmlns:xlink="http://www.w3.org/1999/xlink"
  viewBox="0, 0, 350,260.75"
>
  <g id="svgg">
    <path
      id="path0"
      d="M184.167 26.765 C 183.181 27.295,182.224 27.864,182.039 28.031 C 181.854 28.197,180.913 28.752,179.948 29.263 C 178.982 29.775,177.722 30.476,177.147 30.821 C 176.572 31.167,175.228 31.949,174.160 32.559 C 170.468 34.670,166.839 36.762,166.393 37.038 C 165.872 37.360,162.493 39.306,160.119 40.650 C 159.216 41.162,157.720 42.038,156.794 42.598 C 155.869 43.157,155.008 43.615,154.881 43.615 C 154.754 43.615,154.209 43.951,153.670 44.361 C 153.132 44.772,152.598 45.108,152.484 45.108 C 152.370 45.108,151.185 45.761,149.850 46.559 C 148.516 47.357,146.482 48.549,145.332 49.207 C 144.182 49.865,142.771 50.680,142.196 51.018 C 141.621 51.356,140.344 52.063,139.358 52.588 C 138.372 53.114,137.364 53.714,137.117 53.923 C 136.871 54.131,135.863 54.728,134.877 55.249 C 133.891 55.770,132.211 56.719,131.143 57.356 C 130.075 57.994,128.327 59.004,127.259 59.599 C 126.191 60.195,124.309 61.266,123.077 61.979 C 121.845 62.692,120.030 63.737,119.044 64.302 C 118.058 64.867,116.243 65.907,115.011 66.612 C 113.779 67.318,111.897 68.403,110.829 69.023 C 109.761 69.643,107.812 70.770,106.497 71.528 C 105.183 72.285,103.906 73.026,103.659 73.175 C 100.979 74.790,98.565 76.141,98.084 76.294 C 97.758 76.397,97.228 76.716,96.907 77.001 C 96.585 77.287,95.452 77.981,94.389 78.544 C 93.327 79.107,92.390 79.652,92.308 79.755 C 92.226 79.858,91.285 80.391,90.217 80.939 C 89.149 81.487,87.954 82.186,87.562 82.491 C 87.171 82.797,86.727 83.047,86.577 83.047 C 86.427 83.047,85.576 83.513,84.686 84.083 C 83.795 84.652,82.424 85.468,81.638 85.896 C 80.852 86.323,79.201 87.260,77.969 87.976 C 76.736 88.693,74.989 89.695,74.085 90.202 C 73.181 90.709,71.434 91.719,70.202 92.448 C 68.969 93.176,67.087 94.256,66.019 94.848 C 64.070 95.929,62.364 96.912,57.655 99.667 C 56.258 100.484,54.847 101.304,54.518 101.489 C 54.190 101.675,52.760 102.508,51.340 103.340 C 49.921 104.173,48.635 104.854,48.484 104.854 C 48.332 104.854,47.948 105.091,47.629 105.379 C 47.311 105.668,46.660 106.078,46.183 106.290 C 45.705 106.502,44.616 107.140,43.762 107.707 C 42.907 108.274,42.105 108.738,41.978 108.738 C 41.851 108.738,40.655 109.392,39.320 110.192 C 37.985 110.992,36.288 111.990,35.549 112.410 C 32.793 113.975,32.764 113.772,36.046 115.903 C 37.662 116.953,43.084 120.515,48.096 123.820 C 61.025 132.348,71.101 138.965,83.416 147.014 C 92.513 152.961,99.918 157.808,103.659 160.265 C 107.544 162.816,115.925 168.301,123.376 173.169 C 125.758 174.725,130.408 177.770,133.709 179.934 C 137.011 182.098,142.179 185.482,145.195 187.453 C 148.210 189.425,152.970 192.539,155.772 194.374 C 158.574 196.209,164.938 200.377,169.913 203.635 C 174.889 206.893,181.416 211.173,184.418 213.144 C 187.419 215.116,191.414 217.729,193.294 218.951 C 197.060 221.397,203.483 225.603,211.491 230.863 C 214.360 232.748,217.618 234.874,218.729 235.587 C 219.841 236.299,221.022 237.154,221.354 237.485 C 221.685 237.817,221.957 237.970,221.957 237.826 C 221.957 237.565,223.175 236.462,242.121 219.570 C 247.543 214.736,253.921 209.027,256.295 206.884 C 258.668 204.741,264.382 199.622,268.991 195.508 C 285.769 180.535,291.968 174.997,304.120 164.124 C 329.841 141.111,345.499 127.160,354.012 119.673 C 358.850 115.418,362.841 111.856,362.882 111.756 C 362.951 111.585,360.124 110.167,347.423 104.004 C 344.384 102.529,339.657 100.235,336.919 98.906 C 334.181 97.577,331.795 96.490,331.617 96.490 C 331.438 96.490,331.292 96.365,331.292 96.211 C 331.292 96.058,330.990 95.838,330.620 95.723 C 329.882 95.492,322.750 92.141,322.031 91.687 C 321.785 91.531,321.046 91.154,320.388 90.850 C 318.502 89.975,307.905 84.837,293.204 77.671 C 289.918 76.069,285.078 73.715,282.450 72.441 C 279.821 71.166,275.116 68.881,271.994 67.363 C 268.872 65.844,264.705 63.839,262.733 62.906 C 260.762 61.974,258.947 61.080,258.701 60.921 C 258.454 60.761,257.782 60.418,257.207 60.159 C 256.632 59.899,253.742 58.507,250.784 57.064 C 244.098 53.802,236.666 50.193,230.620 47.273 C 223.047 43.615,211.018 37.764,197.909 31.361 C 184.818 24.968,186.480 25.523,184.167 26.765 M221.653 242.032 C 221.574 242.969,221.618 243.627,221.751 243.493 C 221.884 243.359,221.949 242.593,221.895 241.789 L 221.798 240.329 221.653 242.032 "
      stroke="none"
      fill-rule="evenodd"
    ></path>
    <path
      id="path2"
      d="M45.524 122.428 C 45.625 122.591,46.294 123.096,47.011 123.549 C 49.079 124.857,49.131 125.137,47.614 126.765 C 46.486 127.977,46.217 128.130,45.705 127.856 C 45.377 127.680,45.108 127.591,45.108 127.657 C 45.108 127.764,47.890 129.604,53.921 133.485 C 56.117 134.898,63.877 139.972,70.202 144.130 C 72.255 145.480,75.885 147.862,78.267 149.422 C 82.985 152.511,92.710 158.896,99.328 163.247 C 101.628 164.760,105.056 167.007,106.945 168.241 C 108.835 169.475,112.733 172.029,115.609 173.917 C 118.484 175.805,122.853 178.671,125.317 180.286 C 127.782 181.901,131.949 184.633,134.578 186.356 C 137.207 188.079,141.509 190.897,144.137 192.619 C 146.766 194.341,150.799 196.989,153.099 198.505 C 155.400 200.021,159.500 202.708,162.211 204.477 C 168.311 208.457,172.499 211.202,181.814 217.326 C 185.813 219.955,192.078 224.069,195.737 226.467 C 204.532 232.233,213.403 238.066,216.729 240.269 C 218.208 241.249,219.922 242.371,220.538 242.762 L 221.658 243.473 221.658 240.546 L 221.658 237.619 220.687 237.051 C 220.153 236.738,217.028 234.714,213.742 232.554 C 210.456 230.394,206.355 227.710,204.630 226.588 C 202.905 225.467,199.410 223.182,196.863 221.509 C 188.167 215.798,182.675 212.197,178.641 209.562 C 162.271 198.872,160.391 197.643,154.742 193.933 C 147.553 189.211,143.705 186.695,138.462 183.285 C 135.997 181.682,131.628 178.829,128.753 176.944 C 125.878 175.059,121.307 172.066,118.596 170.292 C 115.885 168.519,110.709 165.126,107.095 162.752 C 103.480 160.378,99.178 157.559,97.535 156.486 C 95.892 155.413,92.532 153.217,90.067 151.605 C 87.603 149.993,84.242 147.802,82.599 146.734 C 79.556 144.758,73.843 141.011,65.273 135.372 C 62.644 133.642,57.084 129.955,52.917 127.179 C 48.750 124.402,45.424 122.265,45.524 122.428 "
      stroke="none"
      fill-rule="evenodd"
    ></path>
    <path
      id="path3"
      d="M33.159 117.195 C 33.159 120.542,32.526 119.853,39.582 124.181 C 46.993 128.728,46.064 128.429,47.614 126.765 C 49.158 125.108,49.119 124.967,46.645 123.254 C 43.562 121.119,34.514 115.115,33.831 114.751 L 33.159 114.393 33.159 117.195 "
      stroke="none"
      fill-rule="evenodd"
    ></path>
    <path
      id="path4"
      d="M60.623 132.281 C 61.022 132.605,61.762 133.098,62.266 133.376 L 63.181 133.881 62.454 133.291 C 62.054 132.966,61.315 132.473,60.811 132.195 L 59.895 131.690 60.623 132.281 M64.078 134.583 C 64.406 134.851,64.944 135.202,65.273 135.363 L 65.870 135.657 65.273 135.170 C 64.944 134.903,64.406 134.552,64.078 134.390 L 63.480 134.097 64.078 134.583 M68.013 137.143 C 68.206 137.375,68.811 137.812,69.357 138.113 L 70.351 138.661 69.604 138.030 C 68.544 137.134,67.542 136.576,68.013 137.143 M71.098 139.018 C 71.098 139.100,71.501 139.455,71.994 139.806 C 72.487 140.157,72.890 140.377,72.890 140.295 C 72.890 140.212,72.487 139.858,71.994 139.507 C 71.501 139.156,71.098 138.936,71.098 139.018 M74.884 141.622 C 75.254 142.071,77.072 143.215,77.072 142.999 C 77.072 142.929,76.501 142.496,75.803 142.035 C 75.105 141.575,74.691 141.389,74.884 141.622 M66.318 141.691 C 66.318 141.761,66.889 142.194,67.588 142.655 C 68.286 143.115,68.700 143.301,68.507 143.068 C 68.136 142.619,66.318 141.476,66.318 141.691 M78.267 143.765 C 78.267 143.895,78.869 144.317,81.329 145.914 C 81.781 146.207,82.151 146.382,82.151 146.303 C 82.151 146.172,81.550 145.750,79.089 144.154 C 78.637 143.860,78.267 143.685,78.267 143.765 M85.138 148.263 C 85.138 148.333,85.709 148.766,86.408 149.227 C 87.106 149.687,87.520 149.873,87.327 149.640 C 86.956 149.191,85.138 148.048,85.138 148.263 M89.521 151.181 C 89.892 151.630,91.710 152.774,91.710 152.558 C 91.710 152.489,91.139 152.055,90.441 151.595 C 89.742 151.134,89.329 150.948,89.521 151.181 M96.392 155.662 C 96.763 156.111,98.581 157.255,98.581 157.039 C 98.581 156.970,98.010 156.536,97.311 156.076 C 96.613 155.615,96.200 155.429,96.392 155.662 M103.809 160.573 C 104.137 160.841,104.675 161.191,105.004 161.353 L 105.601 161.646 105.004 161.160 C 104.675 160.892,104.137 160.541,103.809 160.380 L 103.211 160.087 103.809 160.573 M95.594 160.826 C 95.594 160.908,95.997 161.262,96.490 161.613 C 96.983 161.964,97.386 162.184,97.386 162.102 C 97.386 162.020,96.983 161.665,96.490 161.314 C 95.997 160.963,95.594 160.743,95.594 160.826 M106.848 162.533 C 107.218 162.982,109.037 164.126,109.037 163.910 C 109.037 163.841,108.465 163.407,107.767 162.946 C 107.069 162.486,106.655 162.300,106.848 162.533 M110.232 164.691 C 110.232 164.759,111.004 165.311,111.949 165.917 C 112.894 166.524,113.299 166.707,112.850 166.325 C 111.963 165.571,110.232 164.490,110.232 164.691 M114.615 167.612 C 114.985 168.060,116.804 169.204,116.804 168.989 C 116.804 168.919,116.232 168.485,115.534 168.025 C 114.836 167.564,114.422 167.378,114.615 167.612 M106.049 167.696 C 106.049 167.779,106.453 168.133,106.945 168.484 C 107.438 168.835,107.842 169.055,107.842 168.973 C 107.842 168.891,107.438 168.536,106.945 168.185 C 106.453 167.834,106.049 167.614,106.049 167.696 M118.129 169.947 C 118.220 170.095,118.774 170.499,119.360 170.844 C 119.945 171.190,120.349 171.351,120.258 171.203 C 120.166 171.055,119.613 170.651,119.027 170.306 C 118.442 169.960,118.037 169.799,118.129 169.947 M121.265 172.012 C 121.665 172.337,122.404 172.830,122.908 173.107 L 123.824 173.612 123.097 173.022 C 122.697 172.697,121.957 172.204,121.454 171.926 L 120.538 171.421 121.265 172.012 M113.219 172.460 C 113.219 172.530,113.790 172.964,114.488 173.424 C 115.187 173.885,115.600 174.071,115.408 173.837 C 115.037 173.389,113.219 172.245,113.219 172.460 M127.558 176.028 C 127.558 176.158,128.159 176.580,130.620 178.177 C 131.072 178.470,131.441 178.645,131.441 178.565 C 131.441 178.435,130.840 178.013,128.379 176.416 C 127.928 176.123,127.558 175.948,127.558 176.028 M131.961 178.992 C 132.389 179.505,134.279 180.617,134.026 180.208 C 133.920 180.036,133.337 179.603,132.731 179.246 C 132.125 178.888,131.778 178.774,131.961 178.992 M135.903 181.571 C 136.302 181.896,137.042 182.389,137.546 182.667 L 138.462 183.172 137.734 182.581 C 137.335 182.256,136.595 181.763,136.091 181.486 L 135.176 180.981 135.903 181.571 M142.196 185.604 C 142.196 185.674,142.767 186.108,143.465 186.568 C 144.164 187.029,144.577 187.215,144.384 186.981 C 144.014 186.533,142.196 185.389,142.196 185.604 M146.579 188.523 C 146.950 188.971,148.768 190.115,148.768 189.900 C 148.768 189.830,148.196 189.396,147.498 188.936 C 146.800 188.475,146.386 188.289,146.579 188.523 M142.345 191.641 C 142.674 191.909,143.211 192.259,143.540 192.421 L 144.137 192.714 143.540 192.228 C 143.211 191.960,142.674 191.609,142.345 191.448 L 141.748 191.154 142.345 191.641 M148.768 195.761 C 148.768 195.831,149.339 196.265,150.037 196.725 C 150.736 197.186,151.149 197.371,150.957 197.138 C 150.586 196.690,148.768 195.546,148.768 195.761 M160.996 198.001 C 161.396 198.326,162.135 198.819,162.639 199.097 L 163.555 199.602 162.828 199.011 C 162.428 198.687,161.689 198.194,161.185 197.916 L 160.269 197.411 160.996 198.001 M168.185 202.632 C 168.185 202.702,168.757 203.135,169.455 203.596 C 170.153 204.056,170.567 204.242,170.374 204.009 C 170.003 203.560,168.185 202.417,168.185 202.632 M186.109 214.298 C 186.109 214.381,186.512 214.735,187.005 215.086 C 187.498 215.437,187.901 215.657,187.901 215.575 C 187.901 215.493,187.498 215.138,187.005 214.787 C 186.512 214.436,186.109 214.216,186.109 214.298 M177.446 214.581 C 177.446 214.651,178.017 215.085,178.715 215.545 C 179.414 216.006,179.827 216.192,179.635 215.958 C 179.264 215.510,177.446 214.366,177.446 214.581 M193.279 219.062 C 193.279 219.132,193.850 219.566,194.548 220.026 C 195.246 220.487,195.660 220.672,195.467 220.439 C 195.097 219.991,193.279 218.847,193.279 219.062 M200.149 223.543 C 200.149 223.613,200.721 224.046,201.419 224.507 C 202.117 224.968,202.531 225.153,202.338 224.920 C 201.967 224.471,200.149 223.328,200.149 223.543 M211.403 230.942 C 211.774 231.391,213.592 232.535,213.592 232.319 C 213.592 232.250,213.021 231.816,212.323 231.356 C 211.624 230.895,211.211 230.709,211.403 230.942 M218.820 235.853 C 219.149 236.121,219.686 236.472,220.015 236.633 L 220.612 236.926 220.015 236.440 C 219.686 236.172,219.149 235.821,218.820 235.660 L 218.223 235.367 218.820 235.853 "
      stroke="none"
      fill="#3c2454"
      fill-rule="evenodd"
    ></path>
  </g>
</svg>
